# xmcd CD database file
#
# Track frame offsets:
#	150
#	28561
#	60866
#	82606
#	111861
#	134730
#	159803
#	185430
#	213664
#	238309
#	256991
#
# Disc length: 3876 seconds
#
# Revision: 0
# Processed by: cddbd v1.5.1PL0 Copyright (c) Steve Scherf et al.
# Submitted via: CDex 1.51
#
DISCID=8c0f220b
DTITLE=Rene Marie - Serene Renegade
DYEAR=2004
DGENRE=Jazz
TTITLE0=Red Shoes
TTITLE1=The South is Mine
TTITLE2=Autobiography
TTITLE3=Wishes
TTITLE4=Pause
TTITLE5=Hard Day's Night
TTITLE6=Lover Man Oh Where Can You Be
TTITLE7=Many Years Ago
TTITLE8=Little Girl
TTITLE9=Rufast Daliarg
TTITLE10=Ode to a Flower
EXTD=YEAR: 2004
EXTT0=
EXTT1=
EXTT2=
EXTT3=
EXTT4=
EXTT5=
EXTT6=
EXTT7=
EXTT8=
EXTT9=
EXTT10=
PLAYORDER=
